# xmcd
#
# Track frame offsets: 
#        150
#        23105
#        34952
#        46265
#        55957
#        67920
#        79222
#        92502
#        107705
#        121575
#        132465
#        145550
#        158670
#        172132
#        184260
#        195647
#        208307
#        220860
#        236377
#        249165
#        260775
#        273517
#
# Disc length: 3823 seconds
#
# Revision: 3
# Processed by: cddbd v1.5PL3 Copyright (c) Steve Scherf et al.
# Submitted via: ExactAudioCopy v0.95a5
#
DISCID=3b0eed16
DTITLE=Various Artist - Soul Spectacular! [CD1]
DYEAR=2002
DGENRE=Soul
TTITLE0=Ray Charles - What'd I Say Parts I and II
TTITLE1=Barrett Strong - Money (That's What I Want) 
TTITLE2=The Marvelettes - Please Mr. Postman
TTITLE3=The Drifters featuring Ben E. King - I Count The Tears 
TTITLE4=Mar-Keys - Last Night
TTITLE5=The Isley Brothers - Twist And Shout 
TTITLE6=Ben E. King - Stand By Me 
TTITLE7=Chuck Jackson - Any Day Now (My Wild Beautiful Bird) 
TTITLE8=Ike and Tina Turner - It's Gonna Work Out Fine
TTITLE9=Barbara Lynn - You'll Lose A Good Thing 
TTITLE10=The Contours - Do You Love Me
TTITLE11=Booker T. and The MGs - Green Onions
TTITLE12=The Miracles - You've Really Got A Hold On Me
TTITLE13=Barbara Lewis - Hello Stranger
TTITLE14=Doris Troy - Just One Look
TTITLE15=Major Lance - The Monkey Time
TTITLE16=Martha and The Vandellas - Heat Wave
TTITLE17=Garnet Mimms and The Enchanters - Cry Baby
TTITLE18=The Impressions - It's All Right
TTITLE19=Rufus Thomas - Walking The Dog
TTITLE20=Mary Wells - My Guy
TTITLE21=The Temptations - My Girl
EXTD=
EXTT0=
EXTT1=
EXTT2=
EXTT3=
EXTT4=
EXTT5=
EXTT6=
EXTT7=
EXTT8=
EXTT9=
EXTT10=
EXTT11=
EXTT12=
EXTT13=
EXTT14=
EXTT15=
EXTT16=
EXTT17=
EXTT18=
EXTT19=
EXTT20=
EXTT21=
PLAYORDER=
